<mxfile host="app.diagrams.net" modified="2023-03-11T02:06:41.034Z" agent="5.0 (Macintosh; Intel Mac OS X 10_15_7) AppleWebKit/537.36 (KHTML, like Gecko) Chrome/110.0.0.0 Safari/537.36" etag="RyibfGkE1u8-3p-rpCSE" version="21.0.2" type="github">
  <diagram name="第 1 页" id="CI4Mjs-WJid53hrp3bhM">
    <mxGraphModel dx="954" dy="562" grid="1" gridSize="10" guides="1" tooltips="1" connect="1" arrows="1" fold="1" page="1" pageScale="1" pageWidth="827" pageHeight="1169" math="0" shadow="0">
      <root>
        <mxCell id="0" />
        <mxCell id="1" parent="0" />
        <mxCell id="f5k03i_FpbvPbe0gcE8S-1" value="应用登录" style="swimlane;childLayout=stackLayout;resizeParent=1;resizeParentMax=0;startSize=20;html=1;" vertex="1" parent="1">
          <mxGeometry x="180" y="110" width="710" height="770" as="geometry" />
        </mxCell>
        <mxCell id="f5k03i_FpbvPbe0gcE8S-2" value="教育门户" style="swimlane;startSize=20;html=1;" vertex="1" parent="f5k03i_FpbvPbe0gcE8S-1">
          <mxGeometry y="20" width="160" height="750" as="geometry" />
        </mxCell>
        <mxCell id="f5k03i_FpbvPbe0gcE8S-3" value="教育后台服务" style="swimlane;startSize=20;html=1;" vertex="1" parent="f5k03i_FpbvPbe0gcE8S-1">
          <mxGeometry x="160" y="20" width="140" height="750" as="geometry" />
        </mxCell>
        <mxCell id="f5k03i_FpbvPbe0gcE8S-4" value="教育基座" style="swimlane;startSize=20;html=1;" vertex="1" parent="f5k03i_FpbvPbe0gcE8S-1">
          <mxGeometry x="300" y="20" width="140" height="750" as="geometry" />
        </mxCell>
        <mxCell id="f5k03i_FpbvPbe0gcE8S-6" value="应用端" style="swimlane;startSize=20;html=1;" vertex="1" parent="f5k03i_FpbvPbe0gcE8S-1">
          <mxGeometry x="440" y="20" width="140" height="750" as="geometry" />
        </mxCell>
        <mxCell id="f5k03i_FpbvPbe0gcE8S-7" value="应用服务端" style="swimlane;startSize=20;html=1;" vertex="1" parent="f5k03i_FpbvPbe0gcE8S-1">
          <mxGeometry x="580" y="20" width="130" height="750" as="geometry" />
        </mxCell>
        <mxCell id="f5k03i_FpbvPbe0gcE8S-13" value="应用跳转（未登录情况）" style="swimlane;startSize=20;horizontal=0;html=1;movable=1;resizable=1;rotatable=1;deletable=1;editable=1;locked=0;connectable=1;" vertex="1" parent="1">
          <mxGeometry x="160" y="150" width="730" height="600" as="geometry" />
        </mxCell>
        <mxCell id="f5k03i_FpbvPbe0gcE8S-60" style="edgeStyle=orthogonalEdgeStyle;rounded=0;orthogonalLoop=1;jettySize=auto;html=1;entryX=0.5;entryY=0;entryDx=0;entryDy=0;entryPerimeter=0;" edge="1" parent="f5k03i_FpbvPbe0gcE8S-13" source="f5k03i_FpbvPbe0gcE8S-15" target="f5k03i_FpbvPbe0gcE8S-59">
          <mxGeometry relative="1" as="geometry" />
        </mxCell>
        <mxCell id="f5k03i_FpbvPbe0gcE8S-15" value="点击应用" style="strokeWidth=2;html=1;shape=mxgraph.flowchart.terminator;whiteSpace=wrap;" vertex="1" parent="f5k03i_FpbvPbe0gcE8S-13">
          <mxGeometry x="60" y="10" width="85" height="30" as="geometry" />
        </mxCell>
        <mxCell id="f5k03i_FpbvPbe0gcE8S-58" value="&lt;font color=&quot;#ffffff&quot;&gt;结束&lt;/font&gt;&amp;nbsp;" style="strokeWidth=2;html=1;shape=mxgraph.flowchart.start_1;whiteSpace=wrap;fillColor=#060505;" vertex="1" parent="f5k03i_FpbvPbe0gcE8S-13">
          <mxGeometry x="75.88000000000001" y="270" width="53.25" height="30" as="geometry" />
        </mxCell>
        <mxCell id="f5k03i_FpbvPbe0gcE8S-62" style="edgeStyle=orthogonalEdgeStyle;rounded=0;orthogonalLoop=1;jettySize=auto;html=1;" edge="1" parent="f5k03i_FpbvPbe0gcE8S-13" source="f5k03i_FpbvPbe0gcE8S-59" target="f5k03i_FpbvPbe0gcE8S-61">
          <mxGeometry relative="1" as="geometry" />
        </mxCell>
        <mxCell id="f5k03i_FpbvPbe0gcE8S-63" value="否" style="edgeLabel;html=1;align=center;verticalAlign=middle;resizable=0;points=[];" vertex="1" connectable="0" parent="f5k03i_FpbvPbe0gcE8S-62">
          <mxGeometry x="-0.3943" y="-2" relative="1" as="geometry">
            <mxPoint x="12" y="-2" as="offset" />
          </mxGeometry>
        </mxCell>
        <mxCell id="f5k03i_FpbvPbe0gcE8S-65" style="edgeStyle=orthogonalEdgeStyle;rounded=0;orthogonalLoop=1;jettySize=auto;html=1;entryX=0.5;entryY=0;entryDx=0;entryDy=0;entryPerimeter=0;" edge="1" parent="f5k03i_FpbvPbe0gcE8S-13" source="f5k03i_FpbvPbe0gcE8S-59">
          <mxGeometry relative="1" as="geometry">
            <mxPoint x="102.50500000000011" y="170" as="targetPoint" />
          </mxGeometry>
        </mxCell>
        <mxCell id="f5k03i_FpbvPbe0gcE8S-67" value="是" style="edgeLabel;html=1;align=center;verticalAlign=middle;resizable=0;points=[];" vertex="1" connectable="0" parent="f5k03i_FpbvPbe0gcE8S-65">
          <mxGeometry x="-0.4264" y="-1" relative="1" as="geometry">
            <mxPoint as="offset" />
          </mxGeometry>
        </mxCell>
        <mxCell id="f5k03i_FpbvPbe0gcE8S-59" value="是否登录" style="strokeWidth=2;html=1;shape=mxgraph.flowchart.decision;whiteSpace=wrap;" vertex="1" parent="f5k03i_FpbvPbe0gcE8S-13">
          <mxGeometry x="74.38" y="70" width="56.25" height="40" as="geometry" />
        </mxCell>
        <mxCell id="f5k03i_FpbvPbe0gcE8S-66" style="edgeStyle=orthogonalEdgeStyle;rounded=0;orthogonalLoop=1;jettySize=auto;html=1;entryX=0.5;entryY=0;entryDx=0;entryDy=0;entryPerimeter=0;exitX=0.5;exitY=1;exitDx=0;exitDy=0;exitPerimeter=0;" edge="1" parent="f5k03i_FpbvPbe0gcE8S-13" source="f5k03i_FpbvPbe0gcE8S-61" target="f5k03i_FpbvPbe0gcE8S-93">
          <mxGeometry relative="1" as="geometry">
            <mxPoint x="102.50500000000011" y="170" as="targetPoint" />
          </mxGeometry>
        </mxCell>
        <mxCell id="f5k03i_FpbvPbe0gcE8S-90" style="edgeStyle=orthogonalEdgeStyle;rounded=0;orthogonalLoop=1;jettySize=auto;html=1;exitX=0.988;exitY=0.217;exitDx=0;exitDy=0;exitPerimeter=0;entryX=0.024;entryY=0.217;entryDx=0;entryDy=0;entryPerimeter=0;" edge="1" parent="f5k03i_FpbvPbe0gcE8S-13" source="f5k03i_FpbvPbe0gcE8S-61" target="f5k03i_FpbvPbe0gcE8S-89">
          <mxGeometry relative="1" as="geometry" />
        </mxCell>
        <mxCell id="f5k03i_FpbvPbe0gcE8S-61" value="登录" style="strokeWidth=2;html=1;shape=mxgraph.flowchart.terminator;whiteSpace=wrap;" vertex="1" parent="f5k03i_FpbvPbe0gcE8S-13">
          <mxGeometry x="220" y="75" width="85" height="30" as="geometry" />
        </mxCell>
        <mxCell id="f5k03i_FpbvPbe0gcE8S-79" style="edgeStyle=orthogonalEdgeStyle;rounded=0;orthogonalLoop=1;jettySize=auto;html=1;entryX=0;entryY=0.5;entryDx=0;entryDy=0;entryPerimeter=0;exitX=0.5;exitY=1;exitDx=0;exitDy=0;exitPerimeter=0;" edge="1" parent="f5k03i_FpbvPbe0gcE8S-13" source="f5k03i_FpbvPbe0gcE8S-69" target="f5k03i_FpbvPbe0gcE8S-78">
          <mxGeometry relative="1" as="geometry" />
        </mxCell>
        <mxCell id="f5k03i_FpbvPbe0gcE8S-69" value="跳转" style="strokeWidth=2;html=1;shape=mxgraph.flowchart.terminator;whiteSpace=wrap;" vertex="1" parent="f5k03i_FpbvPbe0gcE8S-13">
          <mxGeometry x="60.010000000000005" y="310" width="85" height="30" as="geometry" />
        </mxCell>
        <mxCell id="f5k03i_FpbvPbe0gcE8S-73" style="edgeStyle=orthogonalEdgeStyle;rounded=0;orthogonalLoop=1;jettySize=auto;html=1;entryX=1;entryY=0.5;entryDx=0;entryDy=0;entryPerimeter=0;exitX=0.5;exitY=1;exitDx=0;exitDy=0;exitPerimeter=0;" edge="1" parent="f5k03i_FpbvPbe0gcE8S-13" source="f5k03i_FpbvPbe0gcE8S-72" target="f5k03i_FpbvPbe0gcE8S-69">
          <mxGeometry relative="1" as="geometry" />
        </mxCell>
        <mxCell id="f5k03i_FpbvPbe0gcE8S-77" value="跳转参数" style="edgeLabel;html=1;align=center;verticalAlign=middle;resizable=0;points=[];" vertex="1" connectable="0" parent="f5k03i_FpbvPbe0gcE8S-73">
          <mxGeometry x="-0.1441" y="4" relative="1" as="geometry">
            <mxPoint x="2" y="-19" as="offset" />
          </mxGeometry>
        </mxCell>
        <mxCell id="f5k03i_FpbvPbe0gcE8S-72" value="获取code、state、type" style="strokeWidth=2;html=1;shape=mxgraph.flowchart.terminator;whiteSpace=wrap;" vertex="1" parent="f5k03i_FpbvPbe0gcE8S-13">
          <mxGeometry x="211" y="215" width="85" height="30" as="geometry" />
        </mxCell>
        <mxCell id="f5k03i_FpbvPbe0gcE8S-81" style="edgeStyle=orthogonalEdgeStyle;rounded=0;orthogonalLoop=1;jettySize=auto;html=1;entryX=0.5;entryY=0;entryDx=0;entryDy=0;entryPerimeter=0;exitX=0.5;exitY=1;exitDx=0;exitDy=0;exitPerimeter=0;" edge="1" parent="f5k03i_FpbvPbe0gcE8S-13" source="f5k03i_FpbvPbe0gcE8S-83" target="f5k03i_FpbvPbe0gcE8S-80">
          <mxGeometry relative="1" as="geometry" />
        </mxCell>
        <mxCell id="f5k03i_FpbvPbe0gcE8S-82" value="根据参数获取用户信息" style="edgeLabel;html=1;align=center;verticalAlign=middle;resizable=0;points=[];" vertex="1" connectable="0" parent="f5k03i_FpbvPbe0gcE8S-81">
          <mxGeometry x="0.0459" y="1" relative="1" as="geometry">
            <mxPoint x="1" as="offset" />
          </mxGeometry>
        </mxCell>
        <mxCell id="f5k03i_FpbvPbe0gcE8S-84" style="edgeStyle=orthogonalEdgeStyle;rounded=0;orthogonalLoop=1;jettySize=auto;html=1;" edge="1" parent="f5k03i_FpbvPbe0gcE8S-13" source="f5k03i_FpbvPbe0gcE8S-78" target="f5k03i_FpbvPbe0gcE8S-83">
          <mxGeometry relative="1" as="geometry" />
        </mxCell>
        <mxCell id="f5k03i_FpbvPbe0gcE8S-78" value="应用页面" style="strokeWidth=2;html=1;shape=mxgraph.flowchart.terminator;whiteSpace=wrap;" vertex="1" parent="f5k03i_FpbvPbe0gcE8S-13">
          <mxGeometry x="490" y="350" width="85" height="30" as="geometry" />
        </mxCell>
        <mxCell id="f5k03i_FpbvPbe0gcE8S-102" style="edgeStyle=orthogonalEdgeStyle;rounded=0;orthogonalLoop=1;jettySize=auto;html=1;entryX=0.5;entryY=1;entryDx=0;entryDy=0;entryPerimeter=0;dashed=1;" edge="1" parent="f5k03i_FpbvPbe0gcE8S-13" source="f5k03i_FpbvPbe0gcE8S-80" target="f5k03i_FpbvPbe0gcE8S-83">
          <mxGeometry relative="1" as="geometry" />
        </mxCell>
        <mxCell id="f5k03i_FpbvPbe0gcE8S-103" value="返回用户信息" style="edgeLabel;html=1;align=center;verticalAlign=middle;resizable=0;points=[];" vertex="1" connectable="0" parent="f5k03i_FpbvPbe0gcE8S-102">
          <mxGeometry x="-0.3309" y="-3" relative="1" as="geometry">
            <mxPoint y="1" as="offset" />
          </mxGeometry>
        </mxCell>
        <mxCell id="f5k03i_FpbvPbe0gcE8S-80" value="用户信息" style="strokeWidth=2;html=1;shape=mxgraph.flowchart.terminator;whiteSpace=wrap;" vertex="1" parent="f5k03i_FpbvPbe0gcE8S-13">
          <mxGeometry x="220" y="420" width="85" height="30" as="geometry" />
        </mxCell>
        <mxCell id="f5k03i_FpbvPbe0gcE8S-104" style="edgeStyle=orthogonalEdgeStyle;rounded=0;orthogonalLoop=1;jettySize=auto;html=1;entryX=1;entryY=0.5;entryDx=0;entryDy=0;entryPerimeter=0;exitX=1;exitY=0.5;exitDx=0;exitDy=0;exitPerimeter=0;" edge="1" parent="f5k03i_FpbvPbe0gcE8S-13" source="f5k03i_FpbvPbe0gcE8S-83" target="f5k03i_FpbvPbe0gcE8S-85">
          <mxGeometry relative="1" as="geometry" />
        </mxCell>
        <mxCell id="f5k03i_FpbvPbe0gcE8S-83" value="获取用户信息" style="strokeWidth=2;html=1;shape=mxgraph.flowchart.terminator;whiteSpace=wrap;" vertex="1" parent="f5k03i_FpbvPbe0gcE8S-13">
          <mxGeometry x="620" y="350" width="85" height="30" as="geometry" />
        </mxCell>
        <mxCell id="f5k03i_FpbvPbe0gcE8S-88" style="edgeStyle=orthogonalEdgeStyle;rounded=0;orthogonalLoop=1;jettySize=auto;html=1;entryX=1;entryY=0.5;entryDx=0;entryDy=0;entryPerimeter=0;exitX=0;exitY=0.5;exitDx=0;exitDy=0;exitPerimeter=0;" edge="1" parent="f5k03i_FpbvPbe0gcE8S-13" source="f5k03i_FpbvPbe0gcE8S-85" target="f5k03i_FpbvPbe0gcE8S-87">
          <mxGeometry relative="1" as="geometry" />
        </mxCell>
        <mxCell id="f5k03i_FpbvPbe0gcE8S-85" value="生成登录态" style="strokeWidth=2;html=1;shape=mxgraph.flowchart.terminator;whiteSpace=wrap;" vertex="1" parent="f5k03i_FpbvPbe0gcE8S-13">
          <mxGeometry x="620" y="460" width="85" height="30" as="geometry" />
        </mxCell>
        <mxCell id="f5k03i_FpbvPbe0gcE8S-87" value="完成登录" style="strokeWidth=2;html=1;shape=mxgraph.flowchart.terminator;whiteSpace=wrap;" vertex="1" parent="f5k03i_FpbvPbe0gcE8S-13">
          <mxGeometry x="500" y="460" width="85" height="30" as="geometry" />
        </mxCell>
        <mxCell id="f5k03i_FpbvPbe0gcE8S-91" style="edgeStyle=orthogonalEdgeStyle;rounded=0;orthogonalLoop=1;jettySize=auto;html=1;entryX=0.976;entryY=0.75;entryDx=0;entryDy=0;entryPerimeter=0;exitX=0.012;exitY=0.75;exitDx=0;exitDy=0;exitPerimeter=0;dashed=1;" edge="1" parent="f5k03i_FpbvPbe0gcE8S-13" source="f5k03i_FpbvPbe0gcE8S-89" target="f5k03i_FpbvPbe0gcE8S-61">
          <mxGeometry relative="1" as="geometry" />
        </mxCell>
        <mxCell id="f5k03i_FpbvPbe0gcE8S-89" value="授权登录" style="strokeWidth=2;html=1;shape=mxgraph.flowchart.terminator;whiteSpace=wrap;" vertex="1" parent="f5k03i_FpbvPbe0gcE8S-13">
          <mxGeometry x="350" y="75" width="85" height="30" as="geometry" />
        </mxCell>
        <mxCell id="f5k03i_FpbvPbe0gcE8S-96" style="edgeStyle=orthogonalEdgeStyle;rounded=0;orthogonalLoop=1;jettySize=auto;html=1;entryX=0.941;entryY=0.667;entryDx=0;entryDy=0;entryPerimeter=0;dashed=1;" edge="1" parent="f5k03i_FpbvPbe0gcE8S-13" target="f5k03i_FpbvPbe0gcE8S-93">
          <mxGeometry relative="1" as="geometry">
            <mxPoint x="220" y="180" as="sourcePoint" />
            <mxPoint x="150" y="190" as="targetPoint" />
          </mxGeometry>
        </mxCell>
        <mxCell id="f5k03i_FpbvPbe0gcE8S-92" value="用户、应用&lt;br&gt;校验" style="strokeWidth=2;html=1;shape=mxgraph.flowchart.terminator;whiteSpace=wrap;" vertex="1" parent="f5k03i_FpbvPbe0gcE8S-13">
          <mxGeometry x="211" y="160" width="85" height="30" as="geometry" />
        </mxCell>
        <mxCell id="f5k03i_FpbvPbe0gcE8S-94" style="edgeStyle=orthogonalEdgeStyle;rounded=0;orthogonalLoop=1;jettySize=auto;html=1;exitX=0.976;exitY=0.25;exitDx=0;exitDy=0;exitPerimeter=0;entryX=0.035;entryY=0.25;entryDx=0;entryDy=0;entryPerimeter=0;" edge="1" parent="f5k03i_FpbvPbe0gcE8S-13" source="f5k03i_FpbvPbe0gcE8S-93" target="f5k03i_FpbvPbe0gcE8S-92">
          <mxGeometry relative="1" as="geometry">
            <mxPoint x="210" y="179" as="targetPoint" />
          </mxGeometry>
        </mxCell>
        <mxCell id="f5k03i_FpbvPbe0gcE8S-98" style="edgeStyle=orthogonalEdgeStyle;rounded=0;orthogonalLoop=1;jettySize=auto;html=1;entryX=0.5;entryY=0;entryDx=0;entryDy=0;entryPerimeter=0;" edge="1" parent="f5k03i_FpbvPbe0gcE8S-13" source="f5k03i_FpbvPbe0gcE8S-93" target="f5k03i_FpbvPbe0gcE8S-97">
          <mxGeometry relative="1" as="geometry" />
        </mxCell>
        <mxCell id="f5k03i_FpbvPbe0gcE8S-93" value="权限校验" style="strokeWidth=2;html=1;shape=mxgraph.flowchart.terminator;whiteSpace=wrap;" vertex="1" parent="f5k03i_FpbvPbe0gcE8S-13">
          <mxGeometry x="60.00999999999999" y="160" width="85" height="30" as="geometry" />
        </mxCell>
        <mxCell id="f5k03i_FpbvPbe0gcE8S-99" style="edgeStyle=orthogonalEdgeStyle;rounded=0;orthogonalLoop=1;jettySize=auto;html=1;entryX=0.5;entryY=0;entryDx=0;entryDy=0;entryPerimeter=0;" edge="1" parent="f5k03i_FpbvPbe0gcE8S-13" source="f5k03i_FpbvPbe0gcE8S-97" target="f5k03i_FpbvPbe0gcE8S-58">
          <mxGeometry relative="1" as="geometry" />
        </mxCell>
        <mxCell id="f5k03i_FpbvPbe0gcE8S-100" style="edgeStyle=orthogonalEdgeStyle;rounded=0;orthogonalLoop=1;jettySize=auto;html=1;" edge="1" parent="f5k03i_FpbvPbe0gcE8S-13" source="f5k03i_FpbvPbe0gcE8S-97" target="f5k03i_FpbvPbe0gcE8S-72">
          <mxGeometry relative="1" as="geometry" />
        </mxCell>
        <mxCell id="f5k03i_FpbvPbe0gcE8S-101" value="是" style="edgeLabel;html=1;align=center;verticalAlign=middle;resizable=0;points=[];" vertex="1" connectable="0" parent="f5k03i_FpbvPbe0gcE8S-100">
          <mxGeometry x="-0.2441" y="-2" relative="1" as="geometry">
            <mxPoint y="-2" as="offset" />
          </mxGeometry>
        </mxCell>
        <mxCell id="f5k03i_FpbvPbe0gcE8S-97" value="使用权限" style="strokeWidth=2;html=1;shape=mxgraph.flowchart.decision;whiteSpace=wrap;" vertex="1" parent="f5k03i_FpbvPbe0gcE8S-13">
          <mxGeometry x="74.37" y="210" width="56.25" height="40" as="geometry" />
        </mxCell>
      </root>
    </mxGraphModel>
  </diagram>
</mxfile>
